<svg width="16" height="16" viewBox="0 0 16 16" fill="none" xmlns="http://www.w3.org/2000/svg">
<path fill-rule="evenodd" clip-rule="evenodd" d="M3.49091 9.6332L2.94261 11.7383L0.938611 11.7819C0.339708 10.6395 0 9.33236 0 7.94335C0 6.60018 0.317618 5.33355 0.880619 4.21826H0.881049L2.66518 4.55466L3.44673 6.37854C3.28315 6.869 3.194 7.3955 3.194 7.94335C3.19406 8.53793 3.29878 9.10762 3.49091 9.6332Z" fill="#FBBB00"/>
<path fill-rule="evenodd" clip-rule="evenodd" d="M15.8597 6.54541C15.9519 7.01874 16 7.50756 16 8.00714C16 8.56734 15.9395 9.11377 15.8244 9.64086C15.4334 11.4345 14.4119 13.0007 12.9967 14.109L12.9963 14.1086L10.7048 13.9947L10.3805 12.0222C11.3195 11.4857 12.0533 10.646 12.4399 9.64086H8.14545V6.54541H12.5025H15.8597Z" fill="#518EF8"/>
<path fill-rule="evenodd" clip-rule="evenodd" d="M12.7996 14.0736L12.8 14.0741C11.4436 15.1881 9.72045 15.8546 7.84471 15.8546C4.83038 15.8546 2.20965 14.1332 0.872742 11.5999L3.43782 9.45459C4.10626 11.2773 5.82718 12.5748 7.84471 12.5748C8.7119 12.5748 9.52433 12.3353 10.2215 11.9172L12.7996 14.0736Z" fill="#28B446"/>
<path fill-rule="evenodd" clip-rule="evenodd" d="M13.0909 1.97171L10.4979 4.07554C9.76833 3.62358 8.90589 3.36249 7.98191 3.36249C5.89555 3.36249 4.12276 4.69356 3.48068 6.54551L0.873179 4.4299H0.872742C2.20487 1.88454 4.88844 0.145508 7.98191 0.145508C9.92401 0.145508 11.7047 0.831107 13.0909 1.97171Z" fill="#F14336"/>
</svg>
