<svg width="122" height="105" viewBox="0 0 122 105" fill="none" xmlns="http://www.w3.org/2000/svg">
<path fill-rule="evenodd" clip-rule="evenodd" d="M0 30.3488L43.1017 104.764L78.0681 104.757L15.6792 0.621338L0 30.3488Z" fill="#FF1654"/>
<mask id="mask0" mask-type="alpha" maskUnits="userSpaceOnUse" x="43" y="0" width="79" height="31">
<path fill-rule="evenodd" clip-rule="evenodd" d="M43.0866 30.3488L121.402 30.1953L103.278 1.18051L57.2449 0.621338L43.0866 30.3488Z" fill="white"/>
</mask>
<g mask="url(#mask0)">
<path fill-rule="evenodd" clip-rule="evenodd" d="M43.0866 30.3488L121.402 30.1953L103.278 1.18051L57.2449 0.621338L43.0866 30.3488Z" fill="url(#paint0_linear)"/>
</g>
<path fill-rule="evenodd" clip-rule="evenodd" d="M43.0866 30.3488L121.402 30.1953L103.278 1.18051L57.2449 0.621338L43.0866 30.3488Z" fill="#FF1654"/>
<path fill-rule="evenodd" clip-rule="evenodd" d="M43.0866 104.757H78.0681L121.402 30.1948L103.278 1.18066L43.0866 104.757Z" fill="#FF1654"/>
<mask id="mask1" mask-type="alpha" maskUnits="userSpaceOnUse" x="71" y="1" width="33" height="30">
<path fill-rule="evenodd" clip-rule="evenodd" d="M71.5302 30.2998L86.381 30.2657L103.278 1.18066C101.907 2.19214 71.5302 30.2998 71.5302 30.2998Z" fill="white"/>
</mask>
<g mask="url(#mask1)">
<path opacity="0.764602" fill-rule="evenodd" clip-rule="evenodd" d="M71.5302 30.2998L86.381 30.2657L103.278 1.18066C101.907 2.19214 71.5302 30.2998 71.5302 30.2998Z" fill="url(#paint1_linear)"/>
</g>
<mask id="mask2" mask-type="alpha" maskUnits="userSpaceOnUse" x="43" y="60" width="18" height="45">
<path fill-rule="evenodd" clip-rule="evenodd" d="M43.1017 104.764L60.3381 75.1638L51.7205 60.7788L43.1017 104.764Z" fill="white"/>
</mask>
<g mask="url(#mask2)">
<path opacity="0.764602" fill-rule="evenodd" clip-rule="evenodd" d="M43.1017 104.764L60.3381 75.1638L51.7205 60.7788L43.1017 104.764Z" fill="url(#paint2_linear)"/>
</g>
<defs>
<linearGradient id="paint0_linear" x1="150.677" y1="31.3054" x2="141.596" y2="-4.38252" gradientUnits="userSpaceOnUse">
<stop stop-color="#212860"/>
<stop offset="1" stop-color="#00D66B"/>
</linearGradient>
<linearGradient id="paint1_linear" x1="65.8192" y1="127.051" x2="161.355" y2="24.1818" gradientUnits="userSpaceOnUse">
<stop stop-color="#1D2029"/>
<stop offset="1" stop-color="#FF1654"/>
</linearGradient>
<linearGradient id="paint2_linear" x1="36.4595" y1="181.64" x2="91.1468" y2="166.618" gradientUnits="userSpaceOnUse">
<stop stop-color="#1D2029"/>
<stop offset="1" stop-color="#FF1654"/>
</linearGradient>
</defs>
</svg>
